<svg width="13" height="13" viewBox="0 0 13 13" fill="none" xmlns="http://www.w3.org/2000/svg">
<path d="M2.12115 6.1698V9.85581L2.12485 9.98602C2.15806 10.5512 2.40599 11.0823 2.81791 11.4707C3.22982 11.8591 3.77459 12.0754 4.34074 12.0754H7.58061L7.71083 12.0695C8.05688 12.0389 8.38113 11.8875 8.62678 11.6418L12.0457 8.22292L12.1345 8.12674C12.3572 7.86055 12.4792 7.52455 12.4793 7.1775V3.93689L12.4756 3.80667C12.4423 3.24149 12.1944 2.71037 11.7825 2.32197C11.3706 1.93357 10.8258 1.71726 10.2597 1.71729H6.9029C7.09082 1.93925 7.21068 2.19376 7.26543 2.45716H10.2597L10.3706 2.46086C10.7429 2.48886 11.0908 2.65653 11.3447 2.93026C11.5985 3.204 11.7395 3.56357 11.7394 3.93689V6.89635H9.5198L9.38958 6.90005C8.8244 6.93326 8.29328 7.18119 7.90488 7.59311C7.51648 8.00502 7.30017 8.54979 7.3002 9.11594V11.3355H4.34074L4.22976 11.3318C3.8575 11.3038 3.50957 11.1362 3.25573 10.8624C3.00189 10.5887 2.8609 10.2291 2.86101 9.85581V6.75577C2.69033 6.68759 2.53546 6.5851 2.406 6.45465L2.12115 6.1698ZM9.5198 7.63621L11.5788 7.63695C11.5611 7.65915 11.5418 7.67986 11.5226 7.69984L8.1037 11.1188L8.04007 11.1735V9.11594L8.04377 9.00496C8.07177 8.6327 8.23944 8.28477 8.51318 8.03093C8.78691 7.77709 9.14648 7.63609 9.5198 7.63621V7.63621ZM6.21852 2.00362L4.7928 0.5779C4.66776 0.452902 4.51466 0.359588 4.34625 0.305731C4.17785 0.251875 3.99902 0.239033 3.82464 0.268276C3.65027 0.297518 3.48541 0.367999 3.34379 0.473849C3.20217 0.579698 3.08789 0.717852 3.01047 0.876805L2.41709 2.09462C2.33109 2.27091 2.1786 2.40584 1.99315 2.46973L1.17782 2.75088C1.0592 2.79185 0.952942 2.86232 0.869053 2.95566C0.785164 3.049 0.726397 3.16215 0.69828 3.28446C0.670163 3.40677 0.67362 3.53422 0.708326 3.65482C0.743032 3.77543 0.807846 3.88522 0.896672 3.97388L1.59806 4.67527L0.641418 5.63118V6.15426H1.1645L2.12115 5.1991L2.8218 5.89975C2.91046 5.98857 3.02025 6.05339 3.14086 6.08809C3.26146 6.1228 3.38891 6.12626 3.51122 6.09814C3.63353 6.07002 3.74668 6.01126 3.84002 5.92737C3.93336 5.84348 4.00383 5.73722 4.0448 5.6186L4.32595 4.80327C4.39001 4.6181 4.52491 4.4659 4.70106 4.38007L5.91961 3.78595C6.07857 3.70853 6.21672 3.59425 6.32257 3.45263C6.42842 3.31101 6.4989 3.14615 6.52814 2.97178C6.55739 2.7974 6.54455 2.61857 6.49069 2.45017C6.43683 2.28176 6.34352 2.12866 6.21852 2.00362V2.00362Z" fill="black"/>
</svg>
